<?xml version="1.0"?>
<svg xmlns="http://www.w3.org/2000/svg" viewBox="0 0 64 64" width="512" height="512"><g id="Lock"><path d="M44,31v1.3a15.052,15.052,0,0,1,6,0V31a3,3,0,0,0-6,0Z"/><path d="M38,35.028V31a9,9,0,0,1,4-7.478V20H4V43a1,1,0,0,0,1,1H32.3A15.013,15.013,0,0,1,38,35.028Z"/><path d="M47,22a8.963,8.963,0,0,1,1,.06V12H43.816A2.966,2.966,0,0,1,44,13v9.525A8.936,8.936,0,0,1,47,22Z"/><path d="M47,40a2.991,2.991,0,0,0-1.011,5.81,1,1,0,0,1,.641,1.136L45.22,54h3.56l-1.41-7.054a1,1,0,0,1,.641-1.136A2.991,2.991,0,0,0,47,40Z"/><path d="M47,34A13,13,0,1,0,60,47,13.015,13.015,0,0,0,47,34Zm3.98,20.8A1,1,0,0,1,50,56H44a1,1,0,0,1-.98-1.2l1.5-7.482a5,5,0,1,1,4.968,0Z"/><path d="M54,33.744V31a7,7,0,0,0-14,0v2.744a14.771,14.771,0,0,1,2-.869V31a5,5,0,0,1,10,0v1.875A14.771,14.771,0,0,1,54,33.744Z"/><path d="M47,4H11a1,1,0,0,0-1,1v5H48V5A1,1,0,0,0,47,4ZM14,8H12V6h2Zm4,0H16V6h2Zm4,0H20V6h2ZM46,8H44V6h2Z"/><path d="M4,13v5H42V13a1,1,0,0,0-1-1H5A1,1,0,0,0,4,13Zm34,1h2v2H38ZM14,14h2v2H14Zm-4,0h2v2H10ZM6,14H8v2H6Z"/></g></svg>
