<svg height="512" viewBox="0 0 64 64" width="512" xmlns="http://www.w3.org/2000/svg"><path d="m7 20a1 1 0 0 0 -1 1v31h16a1 1 0 0 1 1 1v2a1 1 0 0 0 1 1h16a1 1 0 0 0 1-1v-2a1 1 0 0 1 1-1h16v-31a1 1 0 0 0 -1-1h-4v15a3 3 0 0 1 -3 3h-36a3 3 0 0 1 -3-3v-15zm42 20h2v2h-2zm0 4h2v2h-2zm0 4h2v2h-2zm-4-8h2v2h-2zm0 4h2v2h-2zm0 4h2v2h-2zm-4-8h2v2h-2zm0 4h2v2h-2zm0 4h2v2h-2zm-4-8h2v2h-2zm0 4h2v2h-2zm0 4h2v2h-2zm-4-8h2v2h-2zm0 4h2v2h-2zm0 4h2v2h-2zm-4-8h2v2h-2zm0 4h2v2h-2zm0 4h2v2h-2zm-4-8h2v2h-2zm0 4h2v2h-2zm0 4h2v2h-2zm-4-8h2v2h-2zm0 4h2v2h-2zm0 4h2v2h-2zm-4-8h2v2h-2zm0 4h2v2h-2zm0 4h2v2h-2zm-4-8h2v2h-2zm0 4h2v2h-2zm0 4h2v2h-2z"/><path d="m51 5a1 1 0 0 0 -1-1h-36a1 1 0 0 0 -1 1v5h38zm-34 3h-2v-2h2zm4 0h-2v-2h2zm4 0h-2v-2h2zm24 0h-2v-2h2z"/><path d="m60 54h-17v1a3 3 0 0 1 -3 3h-16a3 3 0 0 1 -3-3v-1h-17v3a3 3 0 0 0 3 3h50a3 3 0 0 0 3-3z"/><path d="m13 35a1 1 0 0 0 1 1h36a1 1 0 0 0 1-1v-23h-38zm22.293-18.293 1.414-1.414 8 8a1 1 0 0 1 0 1.414l-8 8-1.414-1.414 7.293-7.293zm-4.293-.707h2v16h-2zm-11.707 7.293 8-8 1.414 1.414-7.293 7.293 7.293 7.293-1.414 1.414-8-8a1 1 0 0 1 0-1.414z"/></svg>