<svg height="512" viewBox="0 0 64 64" width="512" xmlns="http://www.w3.org/2000/svg"><g id="Computer-2" data-name="Computer"><path d="m48 26h-1a3 3 0 0 0 -3 3v1h4z"/><path d="m44 37a3 3 0 0 0 3 3h4a3 3 0 0 0 3-3v-5h-10z"/><path d="m51 26h-1v4h4v-1a3 3 0 0 0 -3-3z"/><path d="m43 59a1 1 0 0 0 -1-1h-20a1 1 0 0 0 -1 1v1h22z"/><path d="m33 18h-22a1 1 0 0 0 -1 1v3h24v-3a1 1 0 0 0 -1-1z"/><path d="m10 39a1 1 0 0 0 1 1h22a1 1 0 0 0 1-1v-15h-24z"/><path d="m26.82 48-1.6 8h13.56l-1.6-8z"/><path d="m4 10h56v-5a1 1 0 0 0 -1-1h-54a1 1 0 0 0 -1 1zm52-4h2v2h-2zm-42 0h2v2h-2zm-4 0h2v2h-2zm-4 0h2v2h-2z"/><path d="m60 45v-33h-56v33a1 1 0 0 0 1 1h54a1 1 0 0 0 1-1zm-4-8a5.006 5.006 0 0 1 -5 5h-4a5.006 5.006 0 0 1 -5-5v-8a5.006 5.006 0 0 1 5-5h1v-1a1 1 0 0 0 -1-1h-6a1 1 0 0 0 -1 1v4a3 3 0 0 1 -3 3h-1v9a3 3 0 0 1 -3 3h-22a3 3 0 0 1 -3-3v-20a3 3 0 0 1 3-3h22a3 3 0 0 1 3 3v9h1a1 1 0 0 0 1-1v-4a3 3 0 0 1 3-3h6a3 3 0 0 1 3 3v1h1a5.006 5.006 0 0 1 5 5z"/></g></svg>