<svg height="512" viewBox="0 0 64 64" width="512" xmlns="http://www.w3.org/2000/svg"><path d="m26.382 6 1-2h-16.764l1 2z"/><path d="m22 17v5h38v-5a1 1 0 0 0 -1-1h-36a1 1 0 0 0 -1 1zm34 1h2v2h-2zm-24 0h2v2h-2zm-4 0h2v2h-2zm-4 0h2v2h-2z"/><path d="m5 60h28a1 1 0 0 0 1-1v-9h-11a3 3 0 0 1 -3-3v-30a3 3 0 0 1 3-3h11v-9a1 1 0 0 0 -1-1h-3.382l-1.718 3.447a1 1 0 0 1 -.9.553h-16a1 1 0 0 1 -.895-.553l-1.723-3.447h-3.382a1 1 0 0 0 -1 1v54a1 1 0 0 0 1 1z"/><path d="m60 47v-23h-38v23a1 1 0 0 0 1 1h36a1 1 0 0 0 1-1zm-19-1a10 10 0 1 1 10-10 10.011 10.011 0 0 1 -10 10z"/><path d="m41 28a8 8 0 1 0 8 8 8.009 8.009 0 0 0 -8-8zm0 7a2.993 2.993 0 0 1 1 5.816v1.184h-2v-1.184a3 3 0 0 1 -2-2.816h2a1 1 0 1 0 1-1 2.993 2.993 0 0 1 -1-5.816v-1.184h2v1.184a3 3 0 0 1 2 2.816h-2a1 1 0 1 0 -1 1z"/></svg>