<?xml version="1.0"?>
<svg xmlns="http://www.w3.org/2000/svg" viewBox="0 0 64 64" width="512" height="512"><g id="Application"><path d="M15,36h1.08a7.011,7.011,0,0,1,3.7-5.208A4.969,4.969,0,0,1,18,27V25a5,5,0,0,1,10,0v2a4.969,4.969,0,0,1-1.779,3.792A7.011,7.011,0,0,1,29.92,36H31a1,1,0,0,0,1-1V19a1,1,0,0,0-1-1H15a1,1,0,0,0-1,1V35A1,1,0,0,0,15,36Z"/><path d="M20,27a3,3,0,0,0,6,0v-.72l-2.758.69a.991.991,0,0,1-.484,0L20,26.28Z"/><path d="M25.892,24.246a2.985,2.985,0,0,0-5.784,0L23,24.969Z"/><path d="M23,32a5.009,5.009,0,0,0-4.9,4h9.8A5.009,5.009,0,0,0,23,32Z"/><path d="M53,4H11a1,1,0,0,0-1,1V59a1,1,0,0,0,1,1H53a1,1,0,0,0,1-1V5A1,1,0,0,0,53,4ZM26,6H38V8H26Zm-4,4H42v2H22ZM38,31V29h4v2Zm4,4v2H38V35ZM38,25V23h4v2Zm0-6V17h4v2ZM12,19a3,3,0,0,1,3-3H31a3,3,0,0,1,3,3V35a3,3,0,0,1-3,3H15a3,3,0,0,1-3-3ZM28,42v2H24V42Zm-6,0v2H18V42ZM12,42h4v2H12ZM42,56H38V54h4Zm10,0H44V54h8Zm0-6H12V48H52Zm0-6H30V42H52Zm0-7H44V35h8Zm0-6H44V29h8Zm0-6H44V23h8Zm0-6H44V17h8Z"/></g></svg>
