<?xml version="1.0"?>
<svg xmlns="http://www.w3.org/2000/svg" viewBox="0 0 64 64" width="512" height="512"><g id="Certification"><circle cx="44" cy="41" r="3"/><path d="M53.1,38.048l-2.536-1.224a1,1,0,0,1-.556-.763l-.384-2.79-2.775.493a1,1,0,0,1-.9-.291L44,31.442l-1.952,2.031a1,1,0,0,1-.9.291l-2.775-.493-.384,2.79a1,1,0,0,1-.556.763L34.9,38.047l1.328,2.481a1,1,0,0,1,0,.945L34.9,43.952l2.536,1.224a1,1,0,0,1,.556.763l.384,2.79,2.775-.493a1.034,1.034,0,0,1,.175-.015,1,1,0,0,1,.721.306L44,50.558l1.952-2.031a1,1,0,0,1,.9-.291l2.775.493.384-2.79a1,1,0,0,1,.556-.763L53.1,43.953l-1.328-2.481a1,1,0,0,1,0-.945ZM44,46a5,5,0,1,1,5-5A5.006,5.006,0,0,1,44,46Z"/><path d="M50.3,50.88,47.023,50.3l-1.17,1.217,7.364,7.441.331-1.669a1,1,0,0,1,.785-.786l1.652-.331-5.253-5.316A.971.971,0,0,1,50.3,50.88Z"/><path d="M37.7,50.88a.959.959,0,0,1-.436-.025l-5.253,5.316,1.652.331a1,1,0,0,1,.785.786l.331,1.669,7.364-7.441L40.977,50.3Z"/><path d="M4,42H33.678l.536-1-.536-1H7a1,1,0,0,1-1-1V7A1,1,0,0,1,7,6H57a1,1,0,0,1,1,1V39a1,1,0,0,1-1,1H54.322l-.536,1,.536,1H60V4H4Z"/><path d="M33.093,36.7l2.992-1.443.453-3.288A1,1,0,0,1,37.7,31.12l3.273.581,2.3-2.394a1.029,1.029,0,0,1,1.442,0l2.3,2.394L50.3,31.12a1,1,0,0,1,1.166.848l.453,3.288L54.908,36.7a.977.977,0,0,1,.468,1.3H56V8H8V38H32.624a.977.977,0,0,1,.469-1.3ZM24,10H40v2H24Zm-4,4H44v2H20Zm-8,6H53v2H12Zm4,14H12V32h4Zm10,0H18V32h8ZM12,28V26H53v2Z"/></g></svg>
